<svg width="732" height="986" viewBox="0 0 732 986" fill="none" xmlns="http://www.w3.org/2000/svg">
<g opacity="0.02">
<path d="M366.245 985.093C164.56 985.093 0.48999 764.154 0.48999 492.56C0.48999 220.967 164.56 0.0273438 366.245 0.0273438C567.93 0.0273438 732 220.967 732 492.56C732 764.154 567.93 985.093 366.245 985.093ZM366.245 6.13541C167.104 6.13541 5.02584 224.319 5.02584 492.56C5.02584 760.727 167.049 978.985 366.245 978.985C565.441 978.985 727.464 760.801 727.464 492.56C727.409 224.319 565.386 6.13541 366.245 6.13541Z" fill="white"/>
<path d="M366.245 937.568C184.031 937.568 35.7821 737.933 35.7821 492.56C35.7821 247.188 184.031 47.5527 366.245 47.5527C548.459 47.5527 696.708 247.188 696.708 492.56C696.708 737.933 548.459 937.568 366.245 937.568ZM366.245 59.8437C189.065 59.8437 44.9094 253.967 44.9094 492.56C44.9094 731.154 189.065 925.277 366.245 925.277C543.425 925.277 687.58 731.154 687.58 492.56C687.525 253.967 543.425 59.8437 366.245 59.8437Z" fill="white"/>
<path d="M366.245 813.914C234.646 813.914 127.553 669.7 127.553 492.486C127.553 315.273 234.646 171.059 366.245 171.059C497.844 171.059 604.937 315.273 604.937 492.486C604.937 669.774 497.844 813.914 366.245 813.914ZM366.245 183.424C239.68 183.424 136.735 322.051 136.735 492.486C136.735 662.921 239.68 801.548 366.245 801.548C492.81 801.548 595.755 662.921 595.755 492.486C595.755 322.126 492.81 183.424 366.245 183.424Z" fill="white"/>
<path d="M366.245 758.715C257.271 758.715 168.598 639.307 168.598 492.56C168.598 345.813 257.271 226.33 366.245 226.33C475.219 226.33 563.947 345.739 563.947 492.56C563.892 639.307 475.219 758.715 366.245 758.715ZM366.245 232.513C259.76 232.513 173.134 349.165 173.134 492.56C173.134 635.955 259.76 752.607 366.245 752.607C472.73 752.607 559.356 635.955 559.356 492.56C559.356 349.165 472.73 232.513 366.245 232.513Z" fill="white"/>
<path d="M366.245 658.078C298.427 658.078 243.276 583.811 243.276 492.485C243.276 401.16 298.427 326.893 366.245 326.893C434.063 326.893 489.214 401.16 489.214 492.485C489.214 583.811 434.008 658.078 366.245 658.078ZM366.245 339.258C303.516 339.258 252.458 408.013 252.458 492.485C252.458 576.958 303.516 645.713 366.245 645.713C428.974 645.713 480.032 576.958 480.032 492.485C480.032 408.013 428.974 339.258 366.245 339.258Z" fill="white"/>
<path d="M366.245 574.798C332.557 574.798 305.12 537.851 305.12 492.486C305.12 447.121 332.557 410.174 366.245 410.174C399.933 410.174 427.37 447.121 427.37 492.486C427.315 537.925 399.933 574.798 366.245 574.798ZM366.245 416.431C335.046 416.431 309.711 450.622 309.711 492.561C309.711 534.573 335.046 568.69 366.245 568.69C397.444 568.69 422.779 534.573 422.779 492.561C422.779 450.548 397.388 416.431 366.245 416.431Z" fill="white"/>
</g>
</svg>
