<svg width="203" height="37" viewBox="0 0 203 37" fill="none" xmlns="http://www.w3.org/2000/svg">
<g clip-path="url(#clip0_11529_14773)">
<path opacity="0.99" fill-rule="evenodd" clip-rule="evenodd" d="M18.9659 -0.0634766C19.0919 -0.0634766 19.2179 -0.0634766 19.3439 -0.0634766C20.3266 0.984432 21.3348 2.01572 22.3684 3.03038C15.9962 9.24119 9.59031 15.4078 3.15049 21.5304C2.0971 20.5377 1.02594 19.5696 -0.0629883 18.6259C-0.0629883 18.4997 -0.0629883 18.3734 -0.0629883 18.2471C6.32153 12.1861 12.6645 6.08256 18.9659 -0.0634766Z" fill="#D3CC87"/>
<path opacity="0.996" fill-rule="evenodd" clip-rule="evenodd" d="M38.2467 18.2479C38.2467 18.3742 38.2467 18.5005 38.2467 18.6267C35.2708 21.3559 32.3304 24.1341 29.4254 26.9612C24.5375 22.4212 19.7067 17.812 14.9332 13.1336C17.8947 10.2502 20.8561 7.36678 23.8176 4.4834C28.649 9.05123 33.4586 13.6394 38.2467 18.2479Z" fill="#FFE600"/>
<path opacity="0.988" fill-rule="evenodd" clip-rule="evenodd" d="M13.421 14.459C18.3071 18.9857 23.1169 23.6159 27.8502 28.3498C27.9342 28.434 27.9342 28.5181 27.8502 28.6023C26.7617 29.5666 25.7116 30.5768 24.6997 31.633C20.9611 28.0552 17.2226 24.4771 13.484 20.8993C11.6338 22.6903 9.76448 24.4582 7.87616 26.203C6.80302 25.1486 5.71087 24.1174 4.59967 23.1092C7.5653 20.2425 10.5057 17.3591 13.421 14.459Z" fill="#B5A302"/>
<path opacity="0.981" fill-rule="evenodd" clip-rule="evenodd" d="M19.2179 36.9371C19.1338 36.9371 19.0499 36.9371 18.9658 36.9371C15.8998 33.8436 12.7702 30.8129 9.57742 27.845C9.4934 27.7187 9.4934 27.5924 9.57742 27.4661C10.9197 26.2264 12.2429 24.9636 13.547 23.6777C16.7848 26.7961 20.0193 29.911 23.2505 33.0224C21.9003 34.3335 20.5561 35.6383 19.2179 36.9371Z" fill="#776B00"/>
</g>
<path d="M199.004 22.5914C198.16 22.5914 197.455 22.3949 196.89 22.002C196.324 21.6091 195.897 21.0747 195.609 20.3989C195.326 19.7231 195.184 18.9608 195.184 18.1121C195.184 17.2634 195.326 16.5011 195.609 15.8253C195.892 15.1495 196.308 14.6151 196.858 14.2222C197.408 13.8293 198.087 13.6328 198.894 13.6328C199.706 13.6328 200.413 13.8267 201.015 14.2143C201.618 14.602 202.084 15.1338 202.414 15.8096C202.749 16.4802 202.917 17.2477 202.917 18.1121C202.917 18.9608 202.752 19.7231 202.422 20.3989C202.097 21.0747 201.641 21.6091 201.055 22.002C200.468 22.3949 199.784 22.5914 199.004 22.5914ZM194.823 26.1277V13.8686H196.709V19.6838H196.976V26.1277H194.823ZM198.658 20.6897C199.119 20.6897 199.496 20.5744 199.789 20.3439C200.083 20.1134 200.3 19.8043 200.442 19.4166C200.583 19.0237 200.654 18.5888 200.654 18.1121C200.654 17.6406 200.58 17.211 200.434 16.8233C200.287 16.4304 200.059 16.1187 199.75 15.8882C199.446 15.6524 199.056 15.5345 198.579 15.5345C198.134 15.5345 197.772 15.6419 197.495 15.8567C197.222 16.0715 197.023 16.3728 196.897 16.7605C196.772 17.1481 196.709 17.5987 196.709 18.1121C196.709 18.6255 196.772 19.0761 196.897 19.4638C197.023 19.8514 197.228 20.1527 197.51 20.3675C197.799 20.5823 198.181 20.6897 198.658 20.6897Z" fill="white"/>
<path d="M188.006 22.6077C187.34 22.6077 186.798 22.4951 186.379 22.2698C185.96 22.0445 185.633 21.759 185.397 21.4132C185.166 21.0674 185.001 20.7086 184.902 20.3366C184.802 19.9594 184.742 19.6163 184.721 19.3072C184.7 18.9981 184.69 18.7728 184.69 18.6313V13.8691H186.858V17.8769C186.858 18.0708 186.869 18.3196 186.89 18.6235C186.911 18.9221 186.976 19.2233 187.086 19.5272C187.196 19.8311 187.375 20.0851 187.621 20.2895C187.872 20.4938 188.226 20.5959 188.682 20.5959C188.865 20.5959 189.061 20.5671 189.271 20.5095C189.481 20.4519 189.677 20.3418 189.86 20.1794C190.044 20.0118 190.193 19.7682 190.308 19.4486C190.429 19.1238 190.489 18.6994 190.489 18.1755L191.715 18.7571C191.715 19.4277 191.579 20.0563 191.306 20.6431C191.034 21.2299 190.623 21.704 190.073 22.0655C189.528 22.4269 188.839 22.6077 188.006 22.6077ZM190.756 22.3562V19.5429H190.489V13.8691H192.642V22.3562H190.756Z" fill="white"/>
<path d="M178.812 22.5914C177.958 22.5914 177.209 22.4002 176.565 22.0177C175.92 21.6353 175.417 21.1088 175.056 20.4382C174.7 19.7624 174.522 18.987 174.522 18.1121C174.522 17.2267 174.705 16.4487 175.072 15.7782C175.438 15.1023 175.944 14.5758 176.588 14.1986C177.233 13.8214 177.974 13.6328 178.812 13.6328C179.666 13.6328 180.415 13.824 181.06 14.2065C181.709 14.5889 182.215 15.1181 182.576 15.7939C182.938 16.4645 183.119 17.2372 183.119 18.1121C183.119 18.9922 182.935 19.7702 182.569 20.4461C182.207 21.1166 181.702 21.6431 181.052 22.0256C180.407 22.4028 179.661 22.5914 178.812 22.5914ZM178.812 20.5954C179.499 20.5954 180.009 20.3648 180.345 19.9038C180.685 19.4376 180.855 18.8403 180.855 18.1121C180.855 17.3577 180.683 16.7552 180.337 16.3047C179.996 15.8541 179.488 15.6288 178.812 15.6288C178.346 15.6288 177.964 15.7336 177.665 15.9432C177.366 16.1527 177.144 16.4435 176.997 16.8155C176.855 17.1874 176.785 17.6196 176.785 18.1121C176.785 18.8718 176.955 19.4768 177.296 19.9274C177.641 20.3727 178.147 20.5954 178.812 20.5954Z" fill="white"/>
<path d="M168.669 22.3562V13.8691H170.555V15.9437L170.351 15.6765C170.461 15.3832 170.608 15.116 170.791 14.875C170.975 14.634 171.2 14.4349 171.467 14.2777C171.671 14.152 171.894 14.0551 172.135 13.987C172.376 13.9136 172.625 13.8691 172.882 13.8534C173.138 13.8324 173.395 13.8377 173.652 13.8691V15.8651C173.416 15.7918 173.141 15.7682 172.827 15.7944C172.517 15.8154 172.237 15.8861 171.986 16.0066C171.734 16.1219 171.522 16.2764 171.349 16.4702C171.176 16.6588 171.045 16.8841 170.956 17.1461C170.867 17.4028 170.823 17.6935 170.823 18.0184V22.3562H168.669Z" fill="white"/>
<path d="M162.492 26.3634C162.01 26.3634 161.552 26.2848 161.117 26.1277C160.682 25.9757 160.292 25.761 159.946 25.4833C159.606 25.2109 159.328 24.8913 159.113 24.5246L161.094 23.5658C161.23 23.8173 161.424 24.0085 161.675 24.1395C161.932 24.2705 162.21 24.336 162.508 24.336C162.828 24.336 163.129 24.281 163.412 24.1709C163.695 24.0662 163.92 23.9064 164.088 23.6916C164.261 23.482 164.342 23.2201 164.331 22.9057V20.4382H164.598V13.8686H166.469V22.9372C166.469 23.1467 166.458 23.3432 166.437 23.5265C166.422 23.7151 166.39 23.9011 166.343 24.0845C166.207 24.6031 165.953 25.0301 165.581 25.3654C165.214 25.7007 164.764 25.9496 164.229 26.112C163.695 26.2796 163.116 26.3634 162.492 26.3634ZM162.304 22.5914C161.523 22.5914 160.84 22.3949 160.253 22.002C159.666 21.6091 159.208 21.0747 158.878 20.3989C158.553 19.7231 158.39 18.9608 158.39 18.1121C158.39 17.2477 158.555 16.4802 158.885 15.8096C159.221 15.1338 159.69 14.602 160.292 14.2143C160.895 13.8267 161.602 13.6328 162.414 13.6328C163.221 13.6328 163.899 13.8293 164.449 14.2222C164.999 14.6151 165.416 15.1495 165.699 15.8253C165.982 16.5011 166.123 17.2634 166.123 18.1121C166.123 18.9608 165.979 19.7231 165.691 20.3989C165.408 21.0747 164.984 21.6091 164.418 22.002C163.852 22.3949 163.147 22.5914 162.304 22.5914ZM162.65 20.6897C163.126 20.6897 163.506 20.5823 163.789 20.3675C164.077 20.1527 164.284 19.8514 164.41 19.4637C164.536 19.0761 164.598 18.6255 164.598 18.1121C164.598 17.5987 164.536 17.1481 164.41 16.7605C164.284 16.3728 164.082 16.0715 163.805 15.8567C163.532 15.6419 163.173 15.5345 162.728 15.5345C162.251 15.5345 161.859 15.6524 161.549 15.8882C161.246 16.1187 161.02 16.4304 160.874 16.8233C160.727 17.211 160.654 17.6406 160.654 18.1121C160.654 18.5888 160.724 19.0237 160.866 19.4166C161.007 19.8043 161.225 20.1134 161.518 20.3439C161.811 20.5744 162.189 20.6897 162.65 20.6897Z" fill="white"/>
<path d="M150.437 22.5914C149.368 22.5914 148.503 22.3504 147.843 21.8684C147.188 21.3812 146.79 20.6949 146.649 19.8095L148.833 19.4795C148.923 19.8776 149.119 20.1893 149.423 20.4146C149.732 20.6399 150.122 20.7525 150.594 20.7525C150.981 20.7525 151.28 20.6792 151.49 20.5325C151.699 20.3806 151.804 20.171 151.804 19.9038C151.804 19.7362 151.762 19.6026 151.678 19.503C151.594 19.3983 151.406 19.2961 151.112 19.1966C150.824 19.097 150.374 18.9661 149.761 18.8036C149.069 18.6255 148.516 18.4264 148.103 18.2064C147.689 17.9864 147.39 17.7244 147.207 17.4206C147.023 17.1115 146.932 16.7395 146.932 16.3047C146.932 15.7598 147.071 15.2883 147.348 14.8902C147.626 14.4868 148.016 14.1777 148.519 13.9629C149.027 13.7428 149.625 13.6328 150.311 13.6328C150.976 13.6328 151.566 13.735 152.079 13.9393C152.592 14.1436 153.006 14.4344 153.321 14.8116C153.64 15.1888 153.837 15.6341 153.91 16.1475L151.725 16.5404C151.689 16.2261 151.552 15.9772 151.317 15.7939C151.081 15.6105 150.761 15.5031 150.358 15.4717C149.965 15.4455 149.648 15.4979 149.407 15.6288C149.171 15.7598 149.053 15.9484 149.053 16.1947C149.053 16.3413 149.103 16.4645 149.203 16.564C149.308 16.6635 149.52 16.7657 149.839 16.8705C150.164 16.9753 150.657 17.1115 151.317 17.2791C151.961 17.4468 152.477 17.6432 152.865 17.8685C153.258 18.0885 153.543 18.3557 153.721 18.6701C153.899 18.9791 153.989 19.3537 153.989 19.7938C153.989 20.6635 153.674 21.3471 153.046 21.8448C152.417 22.3425 151.547 22.5914 150.437 22.5914Z" fill="white"/>
<path d="M141.503 22.5914C140.633 22.5914 139.866 22.4054 139.201 22.0334C138.541 21.6562 138.022 21.1402 137.645 20.4853C137.273 19.8252 137.087 19.0708 137.087 18.2221C137.087 17.2948 137.27 16.488 137.637 15.8017C138.004 15.1154 138.509 14.5837 139.153 14.2065C139.798 13.824 140.539 13.6328 141.377 13.6328C142.268 13.6328 143.025 13.8424 143.648 14.2615C144.272 14.6806 144.733 15.27 145.032 16.0296C145.33 16.7893 145.435 17.6825 145.346 18.7093H143.232V17.9235C143.232 17.0591 143.093 16.4383 142.815 16.0611C142.543 15.6786 142.095 15.4874 141.472 15.4874C140.743 15.4874 140.206 15.7101 139.861 16.1554C139.52 16.5954 139.35 17.2477 139.35 18.1121C139.35 18.9032 139.52 19.5161 139.861 19.951C140.206 20.3806 140.712 20.5954 141.377 20.5954C141.796 20.5954 142.155 20.5037 142.454 20.3203C142.753 20.137 142.98 19.8724 143.138 19.5266L145.275 20.1396C144.956 20.9149 144.45 21.5174 143.758 21.947C143.072 22.3766 142.32 22.5914 141.503 22.5914ZM138.69 18.7093V17.1219H144.316V18.7093H138.69Z" fill="white"/>
<path d="M133.065 12.6907V10.8047H135.202V12.6907H133.065ZM133.065 22.3565V13.8695H135.202V22.3565H133.065Z" fill="white"/>
<path d="M126.731 26.3634C126.249 26.3634 125.79 26.2848 125.355 26.1277C124.92 25.9757 124.53 25.761 124.184 25.4833C123.844 25.2109 123.566 24.8913 123.351 24.5246L125.332 23.5658C125.468 23.8173 125.662 24.0085 125.913 24.1395C126.17 24.2705 126.448 24.336 126.746 24.336C127.066 24.336 127.367 24.281 127.65 24.1709C127.933 24.0662 128.158 23.9064 128.326 23.6916C128.499 23.482 128.58 23.2201 128.569 22.9057V20.4382H128.837V13.8686H130.707V22.9372C130.707 23.1467 130.696 23.3432 130.675 23.5265C130.66 23.7151 130.628 23.9011 130.581 24.0845C130.445 24.6031 130.191 25.0301 129.819 25.3654C129.452 25.7007 129.002 25.9496 128.467 26.112C127.933 26.2796 127.354 26.3634 126.731 26.3634ZM126.542 22.5914C125.761 22.5914 125.078 22.3949 124.491 22.002C123.904 21.6091 123.446 21.0747 123.116 20.3989C122.791 19.7231 122.628 18.9608 122.628 18.1121C122.628 17.2477 122.793 16.4802 123.124 15.8096C123.459 15.1338 123.928 14.602 124.53 14.2143C125.133 13.8267 125.84 13.6328 126.652 13.6328C127.459 13.6328 128.137 13.8293 128.687 14.2222C129.237 14.6151 129.654 15.1495 129.937 15.8253C130.22 16.5011 130.361 17.2634 130.361 18.1121C130.361 18.9608 130.217 19.7231 129.929 20.3989C129.646 21.0747 129.222 21.6091 128.656 22.002C128.09 22.3949 127.385 22.5914 126.542 22.5914ZM126.888 20.6897C127.364 20.6897 127.744 20.5823 128.027 20.3675C128.315 20.1527 128.522 19.8514 128.648 19.4637C128.774 19.0761 128.837 18.6255 128.837 18.1121C128.837 17.5987 128.774 17.1481 128.648 16.7605C128.522 16.3728 128.321 16.0715 128.043 15.8567C127.77 15.6419 127.412 15.5345 126.966 15.5345C126.49 15.5345 126.097 15.6524 125.788 15.8882C125.484 16.1187 125.258 16.4304 125.112 16.8233C124.965 17.211 124.892 17.6406 124.892 18.1121C124.892 18.5888 124.962 19.0237 125.104 19.4166C125.245 19.8043 125.463 20.1134 125.756 20.3439C126.049 20.5744 126.427 20.6897 126.888 20.6897Z" fill="white"/>
<path d="M117.065 22.5914C116.211 22.5914 115.462 22.4002 114.818 22.0177C114.174 21.6353 113.671 21.1088 113.309 20.4382C112.953 19.7624 112.775 18.987 112.775 18.1121C112.775 17.2267 112.958 16.4487 113.325 15.7782C113.692 15.1023 114.197 14.5758 114.842 14.1986C115.486 13.8214 116.227 13.6328 117.065 13.6328C117.919 13.6328 118.669 13.824 119.313 14.2065C119.963 14.5889 120.468 15.1181 120.83 15.7939C121.191 16.4645 121.372 17.2372 121.372 18.1121C121.372 18.9922 121.188 19.7702 120.822 20.4461C120.46 21.1166 119.955 21.6431 119.305 22.0256C118.661 22.4028 117.914 22.5914 117.065 22.5914ZM117.065 20.5954C117.752 20.5954 118.263 20.3648 118.598 19.9038C118.938 19.4376 119.109 18.8403 119.109 18.1121C119.109 17.3577 118.936 16.7552 118.59 16.3047C118.249 15.8541 117.741 15.6288 117.065 15.6288C116.599 15.6288 116.217 15.7336 115.918 15.9432C115.619 16.1527 115.397 16.4435 115.25 16.8155C115.109 17.1874 115.038 17.6196 115.038 18.1121C115.038 18.8718 115.208 19.4768 115.549 19.9274C115.895 20.3727 116.4 20.5954 117.065 20.5954Z" fill="white"/>
<path d="M108.753 22.3565V10.8047H110.89V22.3565H108.753Z" fill="white"/>
<path d="M102.561 22.5914C101.707 22.5914 100.958 22.4002 100.314 22.0177C99.6693 21.6353 99.1663 21.1088 98.8049 20.4382C98.4486 19.7624 98.2705 18.987 98.2705 18.1121C98.2705 17.2267 98.4538 16.4487 98.8206 15.7782C99.1873 15.1023 99.6928 14.5758 100.337 14.1986C100.982 13.8214 101.723 13.6328 102.561 13.6328C103.415 13.6328 104.164 13.824 104.809 14.2065C105.458 14.5889 105.964 15.1181 106.325 15.7939C106.687 16.4645 106.868 17.2372 106.868 18.1121C106.868 18.9922 106.684 19.7702 106.317 20.4461C105.956 21.1166 105.45 21.6431 104.801 22.0256C104.156 22.4028 103.41 22.5914 102.561 22.5914ZM102.561 20.5954C103.247 20.5954 103.758 20.3648 104.094 19.9038C104.434 19.4376 104.604 18.8403 104.604 18.1121C104.604 17.3577 104.431 16.7552 104.086 16.3047C103.745 15.8541 103.237 15.6288 102.561 15.6288C102.095 15.6288 101.712 15.7336 101.414 15.9432C101.115 16.1527 100.893 16.4435 100.746 16.8155C100.604 17.1874 100.534 17.6196 100.534 18.1121C100.534 18.8718 100.704 19.4768 101.044 19.9274C101.39 20.3727 101.896 20.5954 102.561 20.5954Z" fill="white"/>
<path d="M94.6874 22.3567V18.3489C94.6874 18.1551 94.6769 17.9089 94.6559 17.6102C94.635 17.3064 94.5695 17.0025 94.4595 16.6987C94.3495 16.3948 94.1687 16.1407 93.9173 15.9364C93.671 15.7321 93.32 15.6299 92.8642 15.6299C92.6809 15.6299 92.4844 15.6587 92.2749 15.7164C92.0653 15.774 91.8688 15.8866 91.6855 16.0543C91.5021 16.2167 91.3502 16.4577 91.2297 16.7772C91.1144 17.0968 91.0568 17.5212 91.0568 18.0503L89.8309 17.4688C89.8309 16.7982 89.9671 16.1695 90.2395 15.5828C90.512 14.996 90.9206 14.5219 91.4654 14.1604C92.0155 13.7989 92.7071 13.6182 93.5401 13.6182C94.2054 13.6182 94.7476 13.7308 95.1667 13.9561C95.5859 14.1814 95.9107 14.4669 96.1412 14.8126C96.3769 15.1584 96.5446 15.5199 96.6441 15.8971C96.7437 16.2691 96.8039 16.6096 96.8249 16.9187C96.8458 17.2278 96.8563 17.4531 96.8563 17.5945V22.3567H94.6874ZM88.8879 22.3567V13.8696H90.7896V16.6829H91.0568V22.3567H88.8879Z" fill="white"/>
<path d="M84.6956 22.3561V18.3484C84.6956 18.1545 84.6851 17.9083 84.6641 17.6097C84.6432 17.3058 84.5777 17.002 84.4677 16.6981C84.3577 16.3942 84.1769 16.1401 83.9254 15.9358C83.6792 15.7315 83.3282 15.6293 82.8724 15.6293C82.689 15.6293 82.4926 15.6582 82.283 15.7158C82.0735 15.7734 81.877 15.8861 81.6937 16.0537C81.5103 16.2161 81.3584 16.4571 81.2379 16.7767C81.1226 17.0963 81.065 17.5206 81.065 18.0497L79.8391 17.4682C79.8391 16.7976 79.9753 16.169 80.2477 15.5822C80.5201 14.9954 80.9288 14.5213 81.4736 14.1598C82.0237 13.7983 82.7152 13.6176 83.5482 13.6176C84.2136 13.6176 84.7558 13.7302 85.1749 13.9555C85.594 14.1808 85.9189 14.4663 86.1494 14.8121C86.3851 15.1578 86.5528 15.5193 86.6523 15.8965C86.7518 16.2685 86.8121 16.609 86.833 16.9181C86.854 17.2272 86.8645 17.4525 86.8645 17.594V22.3561H84.6956ZM78.8961 22.3561V11.04H80.7978V16.8553H81.065V22.3561H78.8961Z" fill="white"/>
<path d="M73.4893 22.5914C72.6092 22.5914 71.8548 22.3949 71.2261 22.002C70.5974 21.6091 70.1155 21.0747 69.7802 20.3989C69.4449 19.7231 69.2772 18.9608 69.2772 18.1121C69.2772 17.2529 69.4501 16.4854 69.7959 15.8096C70.1469 15.1338 70.6393 14.602 71.2733 14.2143C71.9072 13.8267 72.6563 13.6328 73.5208 13.6328C74.5214 13.6328 75.3596 13.8869 76.0354 14.3951C76.7165 14.898 77.1513 15.5869 77.3399 16.4618L75.2025 17.0276C75.0767 16.5876 74.8567 16.2444 74.5424 15.9982C74.2333 15.752 73.8822 15.6288 73.4893 15.6288C73.0388 15.6288 72.6694 15.7389 72.3813 15.9589C72.0932 16.1737 71.881 16.4697 71.7448 16.8469C71.6085 17.2189 71.5404 17.6406 71.5404 18.1121C71.5404 18.8508 71.7028 19.4507 72.0277 19.9117C72.3577 20.3675 72.8449 20.5954 73.4893 20.5954C73.9713 20.5954 74.338 20.4853 74.5895 20.2653C74.841 20.0453 75.0296 19.7309 75.1553 19.3223L77.3399 19.7781C77.099 20.6792 76.6432 21.3733 75.9726 21.8606C75.302 22.3478 74.4742 22.5914 73.4893 22.5914Z" fill="white"/>
<path d="M64.1316 22.5914C63.2619 22.5914 62.4944 22.4054 61.8291 22.0334C61.169 21.6562 60.6503 21.1402 60.2731 20.4853C59.9011 19.8252 59.7151 19.0708 59.7151 18.2221C59.7151 17.2948 59.8985 16.488 60.2652 15.8017C60.632 15.1154 61.1375 14.5837 61.7819 14.2065C62.4263 13.824 63.1676 13.6328 64.0058 13.6328C64.8965 13.6328 65.6535 13.8424 66.2769 14.2615C66.9004 14.6806 67.3614 15.27 67.66 16.0296C67.9586 16.7893 68.0634 17.6825 67.9743 18.7093H65.8604V17.9235C65.8604 17.0591 65.7216 16.4383 65.4439 16.0611C65.1715 15.6786 64.7236 15.4874 64.1001 15.4874C63.3719 15.4874 62.8349 15.7101 62.4892 16.1554C62.1486 16.5954 61.9784 17.2477 61.9784 18.1121C61.9784 18.9032 62.1486 19.5161 62.4892 19.951C62.8349 20.3806 63.3405 20.5954 64.0058 20.5954C64.425 20.5954 64.7838 20.5037 65.0824 20.3203C65.3811 20.137 65.609 19.8724 65.7661 19.5266L67.9036 20.1396C67.584 20.9149 67.0785 21.5174 66.3869 21.947C65.7006 22.3766 64.9488 22.5914 64.1316 22.5914ZM61.3183 18.7093V17.1219H66.9449V18.7093H61.3183Z" fill="white"/>
<path d="M54.4771 22.3561V13.0361H50.9094V11.04H60.1823V13.0361H56.6146V22.3561H54.4771Z" fill="white"/>
<defs>
<clipPath id="clip0_11529_14773">
<rect width="38.3097" height="37" fill="white"/>
</clipPath>
</defs>
</svg>
