<svg width="34" height="22" viewBox="0 0 34 22" fill="none" xmlns="http://www.w3.org/2000/svg">
<path d="M0.500244 0H33.4999V22H0.500244V0Z" fill="#F0F0F0"/>
<path d="M0.500244 2.75H33.4999V5.49973H0.500244V2.75ZM0.500244 8.25018H33.4999V10.9999H0.500244V8.25018ZM0.500244 13.7496H33.4999V16.4994H0.500244V13.7496ZM0.500244 19.2498H33.4999V21.9996H0.500244V19.2498Z" fill="#D80027"/>
<path d="M0.500244 0H17.0001V11.8462H0.500244V0Z" fill="#2E52B2"/>
<path d="M6.93397 4.85259L6.66823 5.6701H5.80869L6.5042 6.17509L6.23846 6.99254L6.93397 6.48755L7.62902 6.99254L7.36335 6.17509L8.05886 5.6701H7.19925L6.93397 4.85259ZM7.19925 8.62022L6.93397 7.80277L6.66823 8.62022H5.80869L6.5042 9.12527L6.23846 9.94272L6.93397 9.43767L7.62902 9.94272L7.36335 9.12527L8.05886 8.62022H7.19925ZM3.56665 8.62022L3.3013 7.80277L3.03556 8.62022H2.17603L2.87153 9.12527L2.60579 9.94272L3.3013 9.43767L3.99642 9.94272L3.73075 9.12527L4.42612 8.62022H3.56665ZM3.3013 4.85259L3.03556 5.6701H2.17603L2.87153 6.17509L2.60579 6.99254L3.3013 6.48755L3.99642 6.99254L3.73075 6.17509L4.42612 5.6701H3.56665L3.3013 4.85259ZM6.93397 1.90234L6.66823 2.71992H5.80869L6.5042 3.22497L6.23846 4.04242L6.93397 3.53737L7.62902 4.04242L7.36335 3.22497L8.05886 2.71992H7.19925L6.93397 1.90234ZM3.3013 1.90234L3.03556 2.71992H2.17603L2.87153 3.22497L2.60579 4.04242L3.3013 3.53737L3.99642 4.04242L3.73075 3.22497L4.42612 2.71992H3.56665L3.3013 1.90234ZM10.5666 4.85259L10.3009 5.6701H9.44136L10.1368 6.17509L9.87119 6.99254L10.5666 6.48755L11.2618 6.99254L10.996 6.17509L11.6915 5.6701H10.832L10.5666 4.85259ZM10.832 8.62022L10.5666 7.80277L10.3009 8.62022H9.44136L10.1368 9.12527L9.87119 9.94272L10.5666 9.43767L11.2618 9.94272L10.996 9.12527L11.6915 8.62022H10.832ZM14.4647 8.62022L14.1993 7.80277L13.9336 8.62022H13.0741L13.7695 9.12527L13.5038 9.94272L14.1993 9.43767L14.8944 9.94272L14.6287 9.12527L15.3242 8.62022H14.4647ZM14.1993 4.85259L13.9336 5.6701H13.0741L13.7695 6.17509L13.5038 6.99254L14.1993 6.48755L14.8944 6.99254L14.6287 6.17509L15.3242 5.6701H14.4647L14.1993 4.85259ZM10.5666 1.90234L10.3009 2.71992H9.44136L10.1368 3.22497L9.87119 4.04242L10.5666 3.53737L11.2618 4.04242L10.996 3.22497L11.6915 2.71992H10.832L10.5666 1.90234ZM14.1993 1.90234L13.9336 2.71992H13.0741L13.7695 3.22497L13.5038 4.04242L14.1993 3.53737L14.8944 4.04242L14.6287 3.22497L15.3242 2.71992H14.4647L14.1993 1.90234Z" fill="#F0F0F0"/>
</svg>
