<svg width="732" height="986" fill="none" xmlns="http://www.w3.org/2000/svg"><g opacity=".02" fill="#fff"><path d="M366.245 985.093C164.56 985.093.49 764.154.49 492.56.49 220.967 164.56.027 366.245.027S732 220.967 732 492.56c0 271.594-164.07 492.533-365.755 492.533zm0-978.958C167.104 6.135 5.025 224.32 5.025 492.56c0 268.167 162.024 486.425 361.22 486.425 199.196 0 361.219-218.184 361.219-486.425C727.409 224.319 565.386 6.135 366.245 6.135z"/><path d="M366.245 937.568c-182.214 0-330.463-199.635-330.463-445.008 0-245.372 148.249-445.007 330.463-445.007 182.214 0 330.463 199.635 330.463 445.007 0 245.373-148.249 445.008-330.463 445.008zm0-877.724c-177.18 0-321.336 194.123-321.336 432.716 0 238.594 144.156 432.717 321.336 432.717S687.58 731.154 687.58 492.56c-.055-238.593-144.155-432.716-321.335-432.716z"/><path d="M366.245 813.914c-131.599 0-238.692-144.214-238.692-321.428 0-177.213 107.093-321.427 238.692-321.427s238.692 144.214 238.692 321.427c0 177.288-107.093 321.428-238.692 321.428zm0-630.49c-126.565 0-229.51 138.627-229.51 309.062s102.945 309.062 229.51 309.062 229.51-138.627 229.51-309.062c0-170.36-102.945-309.062-229.51-309.062z"/><path d="M366.245 758.715c-108.974 0-197.647-119.408-197.647-266.155 0-146.747 88.673-266.23 197.647-266.23 108.974 0 197.702 119.409 197.702 266.23-.055 146.747-88.728 266.155-197.702 266.155zm0-526.202c-106.485 0-193.111 116.652-193.111 260.047 0 143.395 86.626 260.047 193.111 260.047 106.485 0 193.111-116.652 193.111-260.047 0-143.395-86.626-260.047-193.111-260.047z"/><path d="M366.245 658.078c-67.818 0-122.969-74.267-122.969-165.593 0-91.325 55.151-165.592 122.969-165.592 67.818 0 122.969 74.267 122.969 165.592 0 91.326-55.206 165.593-122.969 165.593zm0-318.82c-62.729 0-113.787 68.755-113.787 153.227 0 84.473 51.058 153.228 113.787 153.228 62.729 0 113.787-68.755 113.787-153.228 0-84.472-51.058-153.227-113.787-153.227z"/><path d="M366.245 574.798c-33.688 0-61.125-36.947-61.125-82.312 0-45.365 27.437-82.312 61.125-82.312s61.125 36.947 61.125 82.312c-.055 45.439-27.437 82.312-61.125 82.312zm0-158.367c-31.199 0-56.534 34.191-56.534 76.13 0 42.012 25.335 76.129 56.534 76.129 31.199 0 56.534-34.117 56.534-76.129 0-42.013-25.391-76.13-56.534-76.13z"/></g></svg>