<svg width="203" height="37" fill="none" xmlns="http://www.w3.org/2000/svg"><g clip-path="url(#clip0_11529_14773)" fill-rule="evenodd" clip-rule="evenodd"><path opacity=".99" d="M18.966-.063h.378a104.77 104.77 0 003.024 3.093A2147.621 2147.621 0 013.15 21.53a103.933 103.933 0 00-3.213-2.904v-.379A1954.974 1954.974 0 0018.966-.063z" fill="#D3CC87"/><path opacity=".996" d="M38.247 18.248v.379a409.632 409.632 0 00-8.822 8.334 746.756 746.756 0 01-14.492-13.827l8.885-8.65c4.831 4.567 9.64 9.155 14.429 13.764z" fill="#FFE600"/><path opacity=".988" d="M13.421 14.459a523.934 523.934 0 0114.43 13.89c.083.085.083.17 0 .253a53.404 53.404 0 00-3.151 3.031L13.484 20.899a332.328 332.328 0 01-5.608 5.304A113.354 113.354 0 004.6 23.109a861.14 861.14 0 008.821-8.65z" fill="#B5A302"/><path opacity=".981" d="M19.218 36.937h-.252a319.14 319.14 0 00-9.389-9.092.316.316 0 010-.379 167.897 167.897 0 003.97-3.788l9.703 9.344-4.032 3.915z" fill="#776B00"/></g><path d="M199.004 22.591c-.844 0-1.549-.196-2.114-.589a3.637 3.637 0 01-1.281-1.603c-.283-.676-.425-1.438-.425-2.287s.142-1.61.425-2.287c.283-.675.699-1.21 1.249-1.603.55-.393 1.229-.59 2.036-.59.812 0 1.519.195 2.121.582a3.87 3.87 0 011.399 1.596c.335.67.503 1.438.503 2.302 0 .849-.165 1.611-.495 2.287a3.942 3.942 0 01-1.367 1.603c-.587.393-1.271.59-2.051.59zm-4.181 3.537v-12.26h1.886v5.816h.267v6.444h-2.153zm3.835-5.438c.461 0 .838-.116 1.131-.346.294-.23.511-.54.653-.927a3.84 3.84 0 00.212-1.305c0-.471-.074-.901-.22-1.289a2.016 2.016 0 00-.684-.935c-.304-.236-.694-.354-1.171-.354-.445 0-.807.108-1.084.323-.273.215-.472.516-.598.904a4.41 4.41 0 00-.188 1.351c0 .514.063.964.188 1.352.126.387.331.689.613.904.289.214.671.322 1.148.322zm-10.652 1.918c-.666 0-1.208-.113-1.627-.338a2.718 2.718 0 01-.982-.857 3.6 3.6 0 01-.495-1.076 5.51 5.51 0 01-.181-1.03 11.06 11.06 0 01-.031-.676V13.87h2.168v4.008c0 .194.011.443.032.747.021.298.086.6.196.903.11.304.289.558.535.762.251.205.605.307 1.061.307.183 0 .379-.029.589-.087a1.47 1.47 0 00.589-.33c.184-.167.333-.41.448-.73.121-.325.181-.75.181-1.274l1.226.582c0 .67-.136 1.3-.409 1.886a3.37 3.37 0 01-1.233 1.422c-.545.362-1.234.543-2.067.543zm2.75-.252v-2.813h-.267v-5.674h2.153v8.487h-1.886zm-11.944.235c-.854 0-1.603-.19-2.247-.573a4.009 4.009 0 01-1.509-1.58c-.356-.676-.534-1.451-.534-2.326 0-.885.183-1.663.55-2.334a3.998 3.998 0 011.516-1.58c.645-.377 1.386-.565 2.224-.565.854 0 1.603.191 2.248.574a3.985 3.985 0 011.516 1.587c.362.67.543 1.443.543 2.318 0 .88-.184 1.658-.55 2.334a4.002 4.002 0 01-1.517 1.58c-.645.377-1.391.565-2.24.565zm0-1.996c.687 0 1.197-.23 1.533-.691.34-.466.51-1.064.51-1.792 0-.754-.172-1.357-.518-1.807-.341-.45-.849-.676-1.525-.676-.466 0-.848.105-1.147.314-.299.21-.521.5-.668.873-.142.371-.212.804-.212 1.296 0 .76.17 1.365.511 1.815.345.446.851.668 1.516.668zm-10.143 1.761V13.87h1.886v2.075l-.204-.268c.11-.293.257-.56.44-.801.184-.241.409-.44.676-.597a2.63 2.63 0 01.668-.291 3.23 3.23 0 01.747-.134c.256-.02.513-.015.77.016v1.996a2.172 2.172 0 00-.825-.07 2.28 2.28 0 00-.841.212 1.902 1.902 0 00-1.03 1.14 2.654 2.654 0 00-.133.871v4.338h-2.154zm-6.177 4.007c-.482 0-.94-.078-1.375-.235a3.92 3.92 0 01-1.171-.645 3.471 3.471 0 01-.833-.958l1.981-.96c.136.252.33.444.581.575.257.13.535.196.833.196.32 0 .621-.055.904-.165.283-.105.508-.265.676-.48.173-.209.254-.47.243-.785v-2.468h.267v-6.57h1.871v9.07c0 .209-.011.405-.032.588a3.298 3.298 0 01-.094.558c-.136.52-.39.946-.762 1.281a3.46 3.46 0 01-1.352.747 5.773 5.773 0 01-1.737.251zm-.188-3.772c-.781 0-1.464-.196-2.051-.589a3.99 3.99 0 01-1.375-1.603c-.325-.676-.488-1.438-.488-2.287 0-.864.165-1.632.495-2.302a3.939 3.939 0 011.407-1.596c.603-.387 1.31-.581 2.122-.581.807 0 1.485.196 2.035.59.55.392.967.926 1.25 1.602.283.676.424 1.438.424 2.287s-.144 1.611-.432 2.287a3.587 3.587 0 01-1.273 1.603c-.566.393-1.271.59-2.114.59zm.346-1.901c.476 0 .856-.108 1.139-.323.288-.214.495-.516.621-.903.126-.388.188-.838.188-1.352 0-.513-.062-.964-.188-1.351-.126-.388-.328-.69-.605-.904-.273-.215-.632-.322-1.077-.322-.477 0-.869.117-1.179.353a2.03 2.03 0 00-.675.935 3.61 3.61 0 00-.22 1.29c0 .476.07.91.212 1.304.141.387.359.696.652.927.293.23.671.346 1.132.346zm-12.213 1.901c-1.069 0-1.934-.24-2.594-.723-.655-.487-1.053-1.173-1.194-2.058l2.184-.33c.09.398.286.71.59.935.309.225.699.338 1.171.338.387 0 .686-.074.896-.22a.735.735 0 00.314-.63.601.601 0 00-.126-.4c-.084-.105-.272-.207-.566-.306-.288-.1-.738-.23-1.351-.393-.692-.178-1.245-.378-1.658-.598-.414-.22-.713-.482-.896-.785-.184-.31-.275-.681-.275-1.116 0-.545.139-1.017.416-1.415.278-.403.668-.712 1.171-.927.508-.22 1.106-.33 1.792-.33.665 0 1.255.102 1.768.306.513.205.927.495 1.242.873.319.377.516.822.589 1.336l-2.185.392a1.06 1.06 0 00-.408-.746c-.236-.184-.556-.29-.959-.322-.393-.027-.71.026-.951.157-.236.13-.354.32-.354.566a.5.5 0 00.15.369c.105.1.317.202.636.306.325.105.818.241 1.478.41.644.167 1.16.363 1.548.588.393.22.678.488.856.802.178.31.268.684.268 1.124 0 .87-.315 1.553-.943 2.05-.629.498-1.499.747-2.609.747zm-8.934 0c-.87 0-1.637-.186-2.302-.558a4.125 4.125 0 01-1.556-1.548c-.372-.66-.558-1.414-.558-2.263 0-.927.183-1.734.55-2.42a3.979 3.979 0 011.516-1.595c.645-.383 1.386-.574 2.224-.574.891 0 1.648.21 2.271.629.624.419 1.085 1.008 1.384 1.768.298.76.403 1.652.314 2.68h-2.114v-.787c0-.864-.139-1.485-.417-1.862-.272-.382-.72-.574-1.343-.574-.729 0-1.266.223-1.611.668-.341.44-.511 1.093-.511 1.957 0 .791.17 1.404.511 1.839.345.43.851.644 1.516.644.419 0 .778-.091 1.077-.275.299-.183.526-.448.684-.793l2.137.613a3.749 3.749 0 01-1.517 1.807 4.167 4.167 0 01-2.255.644zm-2.813-3.882v-1.587h5.626v1.587h-5.626zm-5.625-6.019v-1.885h2.137v1.886h-2.137zm0 9.667V13.87h2.137v8.487h-2.137zm-6.334 4.006c-.482 0-.941-.078-1.376-.235a3.92 3.92 0 01-1.171-.645 3.471 3.471 0 01-.833-.958l1.981-.96c.136.252.33.444.581.575.257.13.535.196.833.196.32 0 .621-.055.904-.165.283-.105.508-.265.676-.48.173-.209.254-.47.243-.785v-2.468h.268v-6.57h1.87v9.07c0 .209-.011.405-.032.588a3.298 3.298 0 01-.094.558c-.136.52-.39.946-.762 1.281a3.46 3.46 0 01-1.352.747 5.771 5.771 0 01-1.736.251zm-.189-3.772c-.781 0-1.464-.196-2.051-.589a3.99 3.99 0 01-1.375-1.603c-.325-.676-.488-1.438-.488-2.287 0-.864.165-1.632.496-2.302a3.93 3.93 0 011.406-1.596c.603-.387 1.31-.581 2.122-.581.807 0 1.485.196 2.035.59.55.392.967.926 1.25 1.602.283.676.424 1.438.424 2.287s-.144 1.611-.432 2.287a3.587 3.587 0 01-1.273 1.603c-.566.393-1.271.59-2.114.59zm.346-1.901c.476 0 .856-.108 1.139-.323.288-.214.495-.516.621-.903a4.38 4.38 0 00.189-1.352c0-.513-.063-.964-.189-1.351-.126-.388-.327-.69-.605-.904-.273-.215-.631-.322-1.077-.322-.476 0-.869.117-1.178.353a2.03 2.03 0 00-.676.935 3.61 3.61 0 00-.22 1.29c0 .476.07.91.212 1.304.141.387.359.696.652.927.293.23.671.346 1.132.346zm-9.823 1.901c-.854 0-1.603-.19-2.247-.573a4.023 4.023 0 01-1.509-1.58c-.356-.676-.534-1.451-.534-2.326 0-.885.183-1.663.55-2.334a4 4 0 011.517-1.58c.644-.377 1.385-.565 2.223-.565.854 0 1.604.191 2.248.574.65.382 1.155.911 1.517 1.587.361.67.542 1.443.542 2.318 0 .88-.184 1.658-.55 2.334a4.002 4.002 0 01-1.517 1.58c-.644.377-1.391.565-2.24.565zm0-1.996c.687 0 1.198-.23 1.533-.691.34-.466.511-1.064.511-1.792 0-.754-.173-1.357-.519-1.807-.341-.45-.849-.676-1.525-.676-.466 0-.848.105-1.147.314-.299.21-.521.5-.668.873-.141.371-.212.804-.212 1.296 0 .76.17 1.365.511 1.815.346.446.851.668 1.516.668zm-8.312 1.762V10.805h2.137v11.552h-2.137zm-6.192.234c-.854 0-1.603-.19-2.247-.573a4.014 4.014 0 01-1.51-1.58c-.355-.676-.534-1.451-.534-2.326 0-.885.184-1.663.55-2.334a4.002 4.002 0 011.517-1.58c.645-.377 1.386-.565 2.224-.565.854 0 1.603.191 2.248.574a3.985 3.985 0 011.516 1.587c.362.67.543 1.443.543 2.318 0 .88-.184 1.658-.551 2.334a4 4 0 01-1.516 1.58c-.645.377-1.391.565-2.24.565zm0-1.996c.686 0 1.197-.23 1.533-.691.34-.466.51-1.064.51-1.792 0-.754-.173-1.357-.518-1.807-.341-.45-.849-.676-1.525-.676-.466 0-.849.105-1.147.314-.299.21-.521.5-.668.873-.142.371-.212.804-.212 1.296 0 .76.17 1.365.51 1.815.346.446.852.668 1.517.668zm-7.874 1.762v-4.008c0-.194-.01-.44-.031-.739a3.343 3.343 0 00-.197-.911 1.719 1.719 0 00-.542-.763c-.246-.204-.597-.306-1.053-.306-.183 0-.38.029-.59.086-.209.058-.405.17-.588.338-.184.163-.336.404-.456.723-.116.32-.173.744-.173 1.273l-1.226-.581c0-.67.136-1.3.409-1.886a3.393 3.393 0 011.225-1.423c.55-.361 1.242-.542 2.075-.542.665 0 1.208.113 1.627.338.419.225.744.51.974.857.236.345.404.707.503 1.084.1.372.16.713.18 1.022.022.309.032.534.032.675v4.763h-2.169zm-5.8 0V13.87h1.903v2.813h.267v5.674h-2.17zm-4.191-.001v-4.008c0-.194-.01-.44-.032-.738a3.343 3.343 0 00-.196-.912 1.718 1.718 0 00-.543-.762c-.246-.204-.597-.307-1.053-.307-.183 0-.38.03-.589.087a1.43 1.43 0 00-.59.338c-.183.162-.335.403-.455.723-.115.32-.173.744-.173 1.273l-1.226-.582c0-.67.136-1.299.409-1.886a3.392 3.392 0 011.226-1.422c.55-.362 1.241-.542 2.074-.542.666 0 1.208.112 1.627.338.419.225.744.51.974.856.236.346.404.707.503 1.085.1.371.16.712.181 1.021.021.31.032.535.032.676v4.762h-2.17zm-5.8 0V11.04h1.902v5.815h.267v5.501h-2.169zm-5.406.235c-.88 0-1.635-.196-2.264-.589a3.89 3.89 0 01-1.446-1.603c-.335-.676-.503-1.438-.503-2.287 0-.86.173-1.627.519-2.302a3.982 3.982 0 011.477-1.596c.634-.387 1.383-.581 2.248-.581 1 0 1.839.254 2.514.762.681.503 1.116 1.192 1.305 2.067l-2.138.566c-.125-.44-.345-.784-.66-1.03a1.646 1.646 0 00-1.053-.37c-.45 0-.82.11-1.108.33-.288.216-.5.512-.636.889a3.66 3.66 0 00-.205 1.265c0 .739.163 1.339.488 1.8.33.456.817.683 1.461.683.482 0 .849-.11 1.1-.33.252-.22.44-.534.566-.943l2.185.456c-.241.901-.697 1.595-1.367 2.083-.671.487-1.499.73-2.484.73zm-9.358 0c-.87 0-1.638-.186-2.303-.558a4.126 4.126 0 01-1.556-1.548c-.372-.66-.558-1.414-.558-2.263 0-.927.183-1.734.55-2.42a3.977 3.977 0 011.517-1.595c.644-.383 1.386-.574 2.224-.574.89 0 1.647.21 2.27.629.624.419 1.085 1.008 1.384 1.768.299.76.403 1.652.314 2.68H65.86v-.787c0-.864-.138-1.485-.416-1.862-.273-.382-.72-.574-1.344-.574-.728 0-1.265.223-1.61.668-.341.44-.512 1.093-.512 1.957 0 .791.17 1.404.511 1.839.346.43.852.644 1.517.644.419 0 .778-.091 1.076-.275.3-.183.527-.448.684-.793l2.138.613a3.754 3.754 0 01-1.517 1.807 4.168 4.168 0 01-2.255.644zm-2.814-3.882v-1.587h5.627v1.587h-5.627zm-6.841 3.647v-9.32H50.91V11.04h9.273v1.996h-3.567v9.32h-2.138z" fill="#fff"/><defs><clipPath id="clip0_11529_14773"><path fill="#fff" d="M0 0h38.31v37H0z"/></clipPath></defs></svg>