<svg width="34" height="22" fill="none" xmlns="http://www.w3.org/2000/svg"><path d="M.5 0h33v22H.5V0z" fill="#F0F0F0"/><path d="M.5 2.75h33V5.5H.5V2.75zm0 5.5h33V11H.5V8.25zm0 5.5h33v2.75H.5v-2.75zm0 5.5h33V22H.5v-2.75z" fill="#D80027"/><path d="M.5 0H17v11.846H.5V0z" fill="#2E52B2"/><path d="M6.934 4.853l-.266.817h-.86l.696.505-.266.818.696-.505.695.505-.266-.818.696-.505h-.86l-.265-.817zm.265 3.767l-.265-.817-.266.817h-.86l.696.505-.266.818.696-.505.695.505-.266-.818.696-.505h-.86zm-3.632 0L3.3 7.803l-.265.817h-.86l.696.505-.266.818.695-.505.695.505-.265-.818.695-.505h-.86zM3.3 4.853l-.265.817h-.86l.696.505-.266.818.695-.505.695.505-.265-.818.695-.505h-.86L3.3 4.853zm3.633-2.95l-.266.817h-.86l.696.505-.266.817.696-.505.695.505-.266-.817.696-.505h-.86l-.265-.818zm-3.633 0l-.265.817h-.86l.696.505-.266.817.695-.505.695.505-.265-.817.695-.505h-.86L3.3 1.902zm7.266 2.95l-.266.817h-.86l.696.505-.266.818.696-.505.695.505-.266-.818.695-.505h-.859l-.265-.817zm.265 3.767l-.265-.817-.266.817h-.86l.696.505-.266.818.696-.505.695.505-.266-.818.695-.505h-.859zm3.633 0l-.266-.817-.265.817h-.86l.696.505-.266.818.695-.505.695.505-.265-.818.695-.505h-.86zm-.266-3.767l-.265.817h-.86l.696.505-.266.818.695-.505.695.505-.265-.818.695-.505h-.86l-.265-.817zm-3.632-2.95l-.266.817h-.86l.696.505-.266.817.696-.505.695.505-.266-.817.695-.505h-.859l-.265-.818zm3.632 0l-.265.817h-.86l.696.505-.266.817.695-.505.695.505-.265-.817.695-.505h-.86l-.265-.818z" fill="#F0F0F0"/></svg>